<svg xmlns="http://www.w3.org/2000/svg" viewBox="0 0 160 500">
<g fill="none" stroke="#C9930A" stroke-linecap="round" stroke-linejoin="round">
<line x1="20" y1="200" x2="140" y2="200" stroke-width="7"/>
<line x1="20" y1="195" x2="140" y2="195" stroke-width="0.8" opacity="0.5"/>
<line x1="20" y1="205" x2="140" y2="205" stroke-width="0.8" opacity="0.5"/>
<line x1="55" y1="200" x2="55" y2="110" stroke-width="5"/>
<path d="M55 110 Q55 92 70 92" stroke-width="5"/>
<line x1="70" y1="92" x2="140" y2="92" stroke-width="5"/>
<line x1="105" y1="200" x2="105" y2="290" stroke-width="5"/>
<path d="M105 290 Q105 308 90 308" stroke-width="5"/>
<line x1="90" y1="308" x2="20" y2="308" stroke-width="5"/>
<g transform="translate(82,200)">
<line x1="-13" y1="0" x2="-7" y2="0" stroke-width="2.5"/>
<line x1="7" y1="0" x2="13" y2="0" stroke-width="2.5"/>
<polygon points="-7,-10 7,0 -7,10" fill="#C9930A" opacity="0.75"/>
<polygon points="7,10 -7,0 7,-10" fill="#C9930A" opacity="0.75"/>
<line x1="0" y1="-10" x2="0" y2="-22" stroke-width="2"/>
<circle cx="0" cy="-27" r="6" stroke-width="1.5"/>
</g>
<g transform="translate(55,148)">
<line x1="0" y1="-7" x2="0" y2="-18" stroke-width="1.5"/>
<circle cx="0" cy="-26" r="12" stroke-width="1.5"/>
</g>
<g transform="translate(112,92)">
<line x1="-10" y1="0" x2="-5" y2="0" stroke-width="2"/>
<polygon points="-5,-8 6,0 -5,8" fill="#C9930A" opacity="0.7"/>
<line x1="-5" y1="-8" x2="-5" y2="8" stroke-width="1.5"/>
<line x1="6" y1="0" x2="12" y2="0" stroke-width="2"/>
</g>
<line x1="26" y1="191" x2="26" y2="209" stroke-width="3"/>
<line x1="30" y1="191" x2="30" y2="209" stroke-width="3"/>
<line x1="130" y1="191" x2="130" y2="209" stroke-width="3"/>
<line x1="134" y1="191" x2="134" y2="209" stroke-width="3"/>
<line x1="20" y1="420" x2="140" y2="420" stroke-width="0.6" stroke-dasharray="4 3" opacity="0.35"/>
<line x1="20" y1="415" x2="20" y2="425" stroke-width="0.8" opacity="0.35"/>
<line x1="140" y1="415" x2="140" y2="425" stroke-width="0.8" opacity="0.35"/>
<line x1="130" y1="84" x2="130" y2="100" stroke-width="3"/>
<line x1="134" y1="84" x2="134" y2="100" stroke-width="3"/>
<line x1="138" y1="87" x2="138" y2="97" stroke-width="6"/>
</g>
</svg>