<svg xmlns="http://www.w3.org/2000/svg" viewBox="0 0 160 500">
<g fill="none" stroke="#C9930A" stroke-linecap="round">
<rect x="70" y="30" width="16" height="380" stroke-width="2" opacity="0.6"/>
<line x1="60" y1="30" x2="96" y2="30" stroke-width="3" opacity="0.6"/>
<line x1="60" y1="410" x2="96" y2="410" stroke-width="4" opacity="0.6"/>
<line x1="20" y1="130" x2="140" y2="130" stroke-width="4" opacity="0.75"/>
<line x1="20" y1="136" x2="140" y2="136" stroke-width="1.2" opacity="0.35"/>
<line x1="20" y1="230" x2="140" y2="230" stroke-width="4" opacity="0.75"/>
<line x1="20" y1="236" x2="140" y2="236" stroke-width="1.2" opacity="0.35"/>
<line x1="20" y1="320" x2="140" y2="320" stroke-width="4" opacity="0.75"/>
<circle cx="34" cy="116" r="18" stroke-width="2.5"/>
<circle cx="34" cy="116" r="12" stroke-width="0.8" opacity="0.4"/>
<circle cx="68" cy="113" r="24" stroke-width="2.5"/>
<circle cx="68" cy="113" r="16" stroke-width="0.8" opacity="0.4"/>
<circle cx="110" cy="115" r="20" stroke-width="2.5"/>
<circle cx="140" cy="116" r="14" stroke-width="2"/>
<circle cx="30" cy="216" r="14" stroke-width="2"/>
<circle cx="62" cy="214" r="20" stroke-width="2.5"/>
<circle cx="62" cy="214" r="13" stroke-width="0.8" opacity="0.4"/>
<circle cx="106" cy="215" r="16" stroke-width="2"/>
<circle cx="140" cy="216" r="22" stroke-width="2.5"/>
<circle cx="140" cy="216" r="15" stroke-width="0.8" opacity="0.4"/>
<circle cx="28" cy="310" r="9" stroke-width="1.8"/>
<circle cx="52" cy="310" r="9" stroke-width="1.8"/>
<circle cx="76" cy="310" r="9" stroke-width="1.8"/>
<circle cx="100" cy="308" r="12" stroke-width="2"/>
<circle cx="126" cy="310" r="9" stroke-width="1.8"/>
<line x1="20" y1="412" x2="140" y2="412" stroke-width="1.2" opacity="0.35"/>
<line x1="22" y1="412" x2="16" y2="424" stroke-width="1" opacity="0.3"/>
<line x1="50" y1="412" x2="44" y2="424" stroke-width="1" opacity="0.3"/>
<line x1="110" y1="412" x2="104" y2="424" stroke-width="1" opacity="0.3"/>
<line x1="138" y1="412" x2="132" y2="424" stroke-width="1" opacity="0.3"/>
</g>
</svg>