<svg xmlns="http://www.w3.org/2000/svg" viewBox="0 0 160 500">
<g fill="none" stroke="#C9930A" stroke-linecap="round" stroke-linejoin="round">
<rect x="15" y="30" width="130" height="440" stroke-width="0.8" stroke-dasharray="6 3" opacity="0.3"/>
<rect x="25" y="60" width="50" height="70" rx="3" stroke-width="2"/>
<rect x="25" y="160" width="50" height="70" rx="3" stroke-width="2"/>
<circle cx="110" cy="100" r="28" stroke-width="2"/>
<circle cx="110" cy="100" r="22" stroke-width="0.8" opacity="0.4"/>
<circle cx="95" cy="280" r="18" stroke-width="2"/>
<circle cx="130" cy="280" r="18" stroke-width="2"/>
<rect x="55" y="340" width="90" height="90" rx="3" stroke-width="1.5" stroke-dasharray="5 3" opacity="0.7"/>
<line x1="75" y1="95" x2="82" y2="95" stroke-width="3"/>
<line x1="82" y1="95" x2="82" y2="130" stroke-width="3"/>
<line x1="82" y1="130" x2="118" y2="130" stroke-width="3"/>
<line x1="118" y1="130" x2="118" y2="100" stroke-width="3"/>
<line x1="118" y1="100" x2="138" y2="100" stroke-width="3"/>
<line x1="75" y1="185" x2="95" y2="185" stroke-width="2.5"/>
<line x1="95" y1="185" x2="95" y2="262" stroke-width="2.5"/>
<line x1="110" y1="298" x2="110" y2="340" stroke-width="2.5"/>
<line x1="130" y1="298" x2="130" y2="340" stroke-width="2.5"/>
<g transform="translate(135,50)">
<line x1="0" y1="12" x2="0" y2="-5" stroke-width="1.5"/>
<polygon points="0,-12 -5,-2 5,-2" fill="#C9930A" opacity="0.7"/>
</g>
<line x1="15" y1="460" x2="145" y2="460" stroke-width="0.5" opacity="0.25"/>
</g>
</svg>