<svg xmlns="http://www.w3.org/2000/svg" viewBox="0 0 160 500">
<g fill="none" stroke="#C9930A" stroke-linecap="round">
<line x1="80" y1="30" x2="80" y2="470" stroke-width="0.5" stroke-dasharray="4 3" opacity="0.3"/>
<line x1="60" y1="160" x2="60" y2="340" stroke-width="8"/>
<line x1="100" y1="160" x2="100" y2="340" stroke-width="8"/>
<line x1="40" y1="180" x2="60" y2="180" stroke-width="5"/>
<line x1="40" y1="320" x2="60" y2="320" stroke-width="5"/>
<line x1="100" y1="180" x2="120" y2="180" stroke-width="5"/>
<line x1="100" y1="320" x2="120" y2="320" stroke-width="5"/>
<rect x="36" y="172" width="14" height="156" stroke-width="1.5"/>
<rect x="110" y="172" width="14" height="156" stroke-width="1.5"/>
<rect x="63" y="230" width="34" height="40" rx="2" stroke-width="1.5" stroke-dasharray="none" opacity="0.8"/>
<circle cx="52" cy="220" r="4" stroke-width="1.5"/>
<circle cx="52" cy="250" r="4" stroke-width="1.5"/>
<circle cx="52" cy="280" r="4" stroke-width="1.5"/>
<circle cx="52" cy="310" r="4" stroke-width="1.5"/>
<circle cx="108" cy="220" r="4" stroke-width="1.5"/>
<circle cx="108" cy="250" r="4" stroke-width="1.5"/>
<circle cx="108" cy="280" r="4" stroke-width="1.5"/>
<circle cx="108" cy="310" r="4" stroke-width="1.5"/>
<line x1="25" y1="180" x2="35" y2="180" stroke-width="0.8" stroke-dasharray="3 2" opacity="0.4"/>
<line x1="25" y1="320" x2="35" y2="320" stroke-width="0.8" stroke-dasharray="3 2" opacity="0.4"/>
<line x1="125" y1="180" x2="135" y2="180" stroke-width="0.8" stroke-dasharray="3 2" opacity="0.4"/>
<line x1="125" y1="320" x2="135" y2="320" stroke-width="0.8" stroke-dasharray="3 2" opacity="0.4"/>
<line x1="26" y1="180" x2="26" y2="320" stroke-width="0.6" opacity="0.4"/>
<line x1="21" y1="180" x2="31" y2="180" stroke-width="0.8" opacity="0.4"/>
<line x1="21" y1="320" x2="31" y2="320" stroke-width="0.8" opacity="0.4"/>
<line x1="60" y1="140" x2="100" y2="140" stroke-width="0.8" stroke-dasharray="3 2" opacity="0.35"/>
<line x1="60" y1="360" x2="100" y2="360" stroke-width="0.8" stroke-dasharray="3 2" opacity="0.35"/>
</g>
</svg>