<svg xmlns="http://www.w3.org/2000/svg" viewBox="0 0 160 500">
<g fill="none" stroke="#C9930A" stroke-linecap="round" stroke-linejoin="round">
<rect x="20" y="50" width="50" height="80" rx="4" stroke-width="2" opacity="0.7"/>
<line x1="45" y1="130" x2="45" y2="180" stroke-width="6"/>
<line x1="41" y1="126" x2="41" y2="130" stroke-width="0.8" opacity="0.5"/>
<line x1="49" y1="126" x2="49" y2="130" stroke-width="0.8" opacity="0.5"/>
<path d="M45 180 Q45 200 35 210 Q25 220 20 220" stroke-width="4"/>
<line x1="20" y1="220" x2="20" y2="240" stroke-width="4"/>
<g transform="translate(20,260)">
<line x1="-10" y1="0" x2="0" y2="-20" stroke-width="3"/>
<line x1="0" y1="-20" x2="0" y2="20" stroke-width="3"/>
<line x1="0" y1="20" x2="10" y2="0" stroke-width="3"/>
</g>
<line x1="20" y1="280" x2="20" y2="300" stroke-width="4"/>
<circle cx="44" cy="320" r="26" stroke-width="2.5"/>
<path d="M20,320 L32,310 L32,330 Z" fill="#C9930A" opacity="0.5"/>
<line x1="44" y1="294" x2="44" y2="280" stroke-width="4"/>
<line x1="70" y1="320" x2="90" y2="320" stroke-width="4"/>
<g transform="translate(104,320)">
<line x1="-14" y1="0" x2="-8" y2="0" stroke-width="2"/>
<line x1="-5" y1="-8" x2="5" y2="0" stroke-width="1.5"/>
<line x1="-5" y1="8" x2="5" y2="0" stroke-width="1.5"/>
<line x1="-5" y1="-8" x2="-5" y2="8" stroke-width="1.5"/>
<line x1="5" y1="0" x2="14" y2="0" stroke-width="2"/>
</g>
<line x1="118" y1="320" x2="140" y2="320" stroke-width="4"/>
<g transform="translate(128,260)">
<line x1="-12" y1="0" x2="-6" y2="0" stroke-width="2"/>
<line x1="6" y1="0" x2="12" y2="0" stroke-width="2"/>
<polygon points="-6,-9 6,0 -6,9" fill="#C9930A" opacity="0.7"/>
<polygon points="6,9 -6,0 6,-9" fill="#C9930A" opacity="0.7"/>
<line x1="0" y1="-9" x2="0" y2="-20" stroke-width="1.5"/>
<circle cx="0" cy="-25" r="5" stroke-width="1.5"/>
</g>
<line x1="140" y1="248" x2="140" y2="320" stroke-width="4"/>
<line x1="136" y1="248" x2="144" y2="248" stroke-width="3"/>
<line x1="136" y1="252" x2="144" y2="252" stroke-width="3"/>
<line x1="20" y1="400" x2="80" y2="400" stroke-width="0.6" stroke-dasharray="3 2" opacity="0.35"/>
<line x1="20" y1="394" x2="20" y2="406" stroke-width="0.8" opacity="0.35"/>
<line x1="80" y1="394" x2="80" y2="406" stroke-width="0.8" opacity="0.35"/>
</g>
</svg>