<svg xmlns="http://www.w3.org/2000/svg" viewBox="0 0 160 500">
<g fill="none" stroke="#C9930A" stroke-linecap="round" stroke-linejoin="round">
<line x1="20" y1="290" x2="50" y2="290" stroke-width="6"/>
<line x1="20" y1="286" x2="50" y2="286" stroke-width="0.8" opacity="0.5"/>
<line x1="20" y1="294" x2="50" y2="294" stroke-width="0.8" opacity="0.5"/>
<circle cx="35" cy="290" r="12" stroke-width="2"/>
<rect x="10" y="306" width="50" height="10" rx="2" stroke-width="2"/>
<line x1="18" y1="316" x2="14" y2="340" stroke-width="1.5"/>
<line x1="52" y1="316" x2="56" y2="340" stroke-width="1.5"/>
<line x1="10" y1="340" x2="60" y2="340" stroke-width="3"/>
<line x1="65" y1="230" x2="100" y2="230" stroke-width="6"/>
<circle cx="82" cy="230" r="12" stroke-width="2"/>
<rect x="74" y="218" width="16" height="12" rx="2" stroke-width="1.5"/>
<line x1="78" y1="206" x2="78" y2="218" stroke-width="1.5"/>
<line x1="86" y1="206" x2="86" y2="218" stroke-width="1.5"/>
<line x1="74" y1="202" x2="92" y2="202" stroke-width="3"/>
<g transform="translate(82,175)">
<line x1="-4" y1="0" x2="-4" y2="-12" stroke-width="1.5"/>
<line x1="4" y1="0" x2="4" y2="-12" stroke-width="1.5"/>
<line x1="-8" y1="-12" x2="8" y2="-12" stroke-width="2"/>
<line x1="0" y1="-12" x2="0" y2="-28" stroke-width="2"/>
<line x1="-6" y1="-28" x2="6" y2="-28" stroke-width="3"/>
<line x1="0" y1="-28" x2="0" y2="-44" stroke-width="1.5" stroke-dasharray="3 2"/>
</g>
<line x1="110" y1="340" x2="145" y2="340" stroke-width="6"/>
<circle cx="127" cy="340" r="12" stroke-width="2"/>
<line x1="119" y1="328" x2="136" y2="328" stroke-width="1.5"/>
<line x1="115" y1="324" x2="140" y2="324" stroke-width="3"/>
<line x1="115" y1="356" x2="140" y2="356" stroke-width="2" stroke-dasharray="4 2" opacity="0.6"/>
<line x1="115" y1="360" x2="140" y2="360" stroke-width="2" stroke-dasharray="4 2" opacity="0.6"/>
<line x1="10" y1="440" x2="60" y2="440" stroke-width="2.5" opacity="0.6"/>
<line x1="65" y1="440" x2="100" y2="440" stroke-width="2.5" opacity="0.6"/>
<line x1="110" y1="440" x2="150" y2="440" stroke-width="2.5" opacity="0.6"/>
</g>
</svg>